<?xml version="1.0" encoding="UTF-8" standalone="no"?>
<!DOCTYPE svg PUBLIC "-//W3C//DTD SVG 1.1//EN"
 "http://www.w3.org/Graphics/SVG/1.1/DTD/svg11.dtd">
<!-- Generated by graphviz version 2.40.1 (20161225.0304)
 -->
<!-- Title: dependencies Pages: 1 -->
<svg width="5882pt" height="284pt"
 viewBox="0.00 0.00 5882.00 284.00" xmlns="http://www.w3.org/2000/svg" xmlns:xlink="http://www.w3.org/1999/xlink">
<g id="graph0" class="graph" transform="scale(1 1) rotate(0) translate(4 280)">
<title>dependencies</title>
<polygon fill="#ffffff" stroke="transparent" points="-4,4 -4,-280 5878,-280 5878,4 -4,4"/>
<text text-anchor="start" x="2916.0091" y="-42.4" font-family="sans-serif" font-weight="bold" font-size="14.00" fill="#000000">Legend</text>
<polygon fill="#ffffb3" stroke="transparent" points="2703,-10 2703,-30 2723,-30 2723,-10 2703,-10"/>
<text text-anchor="start" x="2726.629" y="-15.4" font-family="sans-serif" font-size="14.00" fill="#000000"> &#160;Declarations</text>
<polygon fill="#8dd3c7" stroke="transparent" points="2816,-10 2816,-30 2836,-30 2836,-10 2816,-10"/>
<text text-anchor="start" x="2839.7251" y="-15.4" font-family="sans-serif" font-size="14.00" fill="#000000"> &#160;Module</text>
<polygon fill="#80b1d3" stroke="transparent" points="2902,-10 2902,-30 2922,-30 2922,-10 2902,-10"/>
<text text-anchor="start" x="2925.7812" y="-15.4" font-family="sans-serif" font-size="14.00" fill="#000000"> &#160;Bootstrap</text>
<polygon fill="#fdb462" stroke="transparent" points="2999,-10 2999,-30 3019,-30 3019,-10 2999,-10"/>
<text text-anchor="start" x="3022.6732" y="-15.4" font-family="sans-serif" font-size="14.00" fill="#000000"> &#160;Providers</text>
<polygon fill="#fb8072" stroke="transparent" points="3095,-10 3095,-30 3115,-30 3115,-10 3095,-10"/>
<text text-anchor="start" x="3118.7258" y="-15.4" font-family="sans-serif" font-size="14.00" fill="#000000"> &#160;Exports</text>
<g id="clust7" class="cluster">
<title>cluster_AppModule</title>
<polygon fill="none" stroke="#000000" stroke-dasharray="1,5" points="8,-70 8,-268 5866,-268 5866,-70 8,-70"/>
</g>
<g id="clust8" class="cluster">
<title>cluster_AppModule_declarations</title>
<polygon fill="none" stroke="#000000" points="737,-78 737,-130 5858,-130 5858,-78 737,-78"/>
</g>
<g id="clust40" class="cluster">
<title>cluster_AppModule_imports</title>
<polygon fill="none" stroke="#000000" points="414,-78 414,-130 729,-130 729,-78 414,-78"/>
</g>
<g id="clust42" class="cluster">
<title>cluster_AppModule_bootstrap</title>
<polygon fill="none" stroke="#000000" points="2945,-208 2945,-260 3069,-260 3069,-208 2945,-208"/>
</g>
<g id="clust43" class="cluster">
<title>cluster_AppModule_providers</title>
<polygon fill="none" stroke="#000000" points="16,-78 16,-130 406,-130 406,-78 16,-78"/>
</g>
<!-- AddCategoryDialogComponent -->
<g id="node1" class="node">
<title>AddCategoryDialogComponent</title>
<polygon fill="#ffffb3" stroke="#000000" points="5850.3585,-122 5655.6415,-122 5655.6415,-86 5850.3585,-86 5850.3585,-122"/>
<text text-anchor="middle" x="5753" y="-99.8" font-family="Times,serif" font-size="14.00" fill="#000000">AddCategoryDialogComponent</text>
</g>
<!-- AppModule -->
<g id="node32" class="node">
<title>AppModule</title>
<polygon fill="#8dd3c7" stroke="#000000" points="3048.6571,-187 3045.6571,-191 3024.6571,-191 3021.6571,-187 2965.3429,-187 2965.3429,-151 3048.6571,-151 3048.6571,-187"/>
<text text-anchor="middle" x="3007" y="-164.8" font-family="Times,serif" font-size="14.00" fill="#000000">AppModule</text>
</g>
<!-- AddCategoryDialogComponent&#45;&gt;AppModule -->
<g id="edge1" class="edge">
<title>AddCategoryDialogComponent&#45;&gt;AppModule</title>
<path fill="none" stroke="#000000" d="M5753,-122.3802C5753,-146.2785 5753,-185 5753,-185 5753,-185 3058.7616,-185 3058.7616,-185"/>
<polygon fill="#000000" stroke="#000000" points="3058.7617,-181.5001 3048.7616,-185 3058.7616,-188.5001 3058.7617,-181.5001"/>
</g>
<!-- AddFriendComponent -->
<g id="node2" class="node">
<title>AddFriendComponent</title>
<polygon fill="#ffffb3" stroke="#000000" points="5637.9874,-122 5496.0126,-122 5496.0126,-86 5637.9874,-86 5637.9874,-122"/>
<text text-anchor="middle" x="5567" y="-99.8" font-family="Times,serif" font-size="14.00" fill="#000000">AddFriendComponent</text>
</g>
<!-- AddFriendComponent&#45;&gt;AppModule -->
<g id="edge2" class="edge">
<title>AddFriendComponent&#45;&gt;AppModule</title>
<path fill="none" stroke="#000000" d="M5567,-122.3228C5567,-145.6602 5567,-183 5567,-183 5567,-183 3058.7715,-183 3058.7715,-183"/>
<polygon fill="#000000" stroke="#000000" points="3058.7715,-179.5001 3048.7715,-183 3058.7715,-186.5001 3058.7715,-179.5001"/>
</g>
<!-- AdvanceSearchComponent -->
<g id="node3" class="node">
<title>AdvanceSearchComponent</title>
<polygon fill="#ffffb3" stroke="#000000" points="5477.6699,-122 5308.3301,-122 5308.3301,-86 5477.6699,-86 5477.6699,-122"/>
<text text-anchor="middle" x="5393" y="-99.8" font-family="Times,serif" font-size="14.00" fill="#000000">AdvanceSearchComponent</text>
</g>
<!-- AdvanceSearchComponent&#45;&gt;AppModule -->
<g id="edge3" class="edge">
<title>AdvanceSearchComponent&#45;&gt;AppModule</title>
<path fill="none" stroke="#000000" d="M5393,-122.2479C5393,-145.0179 5393,-181 5393,-181 5393,-181 3058.6656,-181 3058.6656,-181"/>
<polygon fill="#000000" stroke="#000000" points="3058.6656,-177.5001 3048.6656,-181 3058.6655,-184.5001 3058.6656,-177.5001"/>
</g>
<!-- AppComponent -->
<g id="node4" class="node">
<title>AppComponent</title>
<polygon fill="#ffffb3" stroke="#000000" points="5290.9399,-122 5185.0601,-122 5185.0601,-86 5290.9399,-86 5290.9399,-122"/>
<text text-anchor="middle" x="5238" y="-99.8" font-family="Times,serif" font-size="14.00" fill="#000000">AppComponent</text>
</g>
<!-- AppComponent&#45;&gt;AppModule -->
<g id="edge4" class="edge">
<title>AppComponent&#45;&gt;AppModule</title>
<path fill="none" stroke="#000000" d="M5238,-122.1554C5238,-144.3519 5238,-179 5238,-179 5238,-179 3059.0842,-179 3059.0842,-179"/>
<polygon fill="#000000" stroke="#000000" points="3059.0842,-175.5001 3049.0842,-179 3059.0841,-182.5001 3059.0842,-175.5001"/>
</g>
<!-- CreateEventComponent -->
<g id="node5" class="node">
<title>CreateEventComponent</title>
<polygon fill="#ffffb3" stroke="#000000" points="5167.0226,-122 5016.9774,-122 5016.9774,-86 5167.0226,-86 5167.0226,-122"/>
<text text-anchor="middle" x="5092" y="-99.8" font-family="Times,serif" font-size="14.00" fill="#000000">CreateEventComponent</text>
</g>
<!-- CreateEventComponent&#45;&gt;AppModule -->
<g id="edge5" class="edge">
<title>CreateEventComponent&#45;&gt;AppModule</title>
<path fill="none" stroke="#000000" d="M5092,-122.0449C5092,-143.6623 5092,-177 5092,-177 5092,-177 3059.1198,-177 3059.1198,-177"/>
<polygon fill="#000000" stroke="#000000" points="3059.1199,-173.5001 3049.1198,-177 3059.1198,-180.5001 3059.1199,-173.5001"/>
</g>
<!-- DocumentsComponent -->
<g id="node6" class="node">
<title>DocumentsComponent</title>
<polygon fill="#ffffb3" stroke="#000000" points="4998.594,-122 4853.406,-122 4853.406,-86 4998.594,-86 4998.594,-122"/>
<text text-anchor="middle" x="4926" y="-99.8" font-family="Times,serif" font-size="14.00" fill="#000000">DocumentsComponent</text>
</g>
<!-- DocumentsComponent&#45;&gt;AppModule -->
<g id="edge6" class="edge">
<title>DocumentsComponent&#45;&gt;AppModule</title>
<path fill="none" stroke="#000000" d="M4926,-122.2843C4926,-143.3211 4926,-175 4926,-175 4926,-175 3058.8657,-175 3058.8657,-175"/>
<polygon fill="#000000" stroke="#000000" points="3058.8657,-171.5001 3048.8657,-175 3058.8657,-178.5001 3058.8657,-171.5001"/>
</g>
<!-- DuplicateComponent -->
<g id="node7" class="node">
<title>DuplicateComponent</title>
<polygon fill="#ffffb3" stroke="#000000" points="4835.7548,-122 4700.2452,-122 4700.2452,-86 4835.7548,-86 4835.7548,-122"/>
<text text-anchor="middle" x="4768" y="-99.8" font-family="Times,serif" font-size="14.00" fill="#000000">DuplicateComponent</text>
</g>
<!-- DuplicateComponent&#45;&gt;AppModule -->
<g id="edge7" class="edge">
<title>DuplicateComponent&#45;&gt;AppModule</title>
<path fill="none" stroke="#000000" d="M4768,-122.1289C4768,-142.5724 4768,-173 4768,-173 4768,-173 3058.7937,-173 3058.7937,-173"/>
<polygon fill="#000000" stroke="#000000" points="3058.7937,-169.5001 3048.7937,-173 3058.7936,-176.5001 3058.7937,-169.5001"/>
</g>
<!-- EditEventComponent -->
<g id="node8" class="node">
<title>EditEventComponent</title>
<polygon fill="#ffffb3" stroke="#000000" points="4681.8244,-122 4544.1756,-122 4544.1756,-86 4681.8244,-86 4681.8244,-122"/>
<text text-anchor="middle" x="4613" y="-99.8" font-family="Times,serif" font-size="14.00" fill="#000000">EditEventComponent</text>
</g>
<!-- EditEventComponent&#45;&gt;AppModule -->
<g id="edge8" class="edge">
<title>EditEventComponent&#45;&gt;AppModule</title>
<path fill="none" stroke="#000000" d="M4613,-122.308C4613,-142.1455 4613,-171 4613,-171 4613,-171 3058.7211,-171 3058.7211,-171"/>
<polygon fill="#000000" stroke="#000000" points="3058.7212,-167.5001 3048.7211,-171 3058.7211,-174.5001 3058.7212,-167.5001"/>
</g>
<!-- EventDetailComponent -->
<g id="node9" class="node">
<title>EventDetailComponent</title>
<polygon fill="#ffffb3" stroke="#000000" points="4526.1979,-122 4377.8021,-122 4377.8021,-86 4526.1979,-86 4526.1979,-122"/>
<text text-anchor="middle" x="4452" y="-99.8" font-family="Times,serif" font-size="14.00" fill="#000000">EventDetailComponent</text>
</g>
<!-- EventDetailComponent&#45;&gt;AppModule -->
<g id="edge9" class="edge">
<title>EventDetailComponent&#45;&gt;AppModule</title>
<path fill="none" stroke="#000000" d="M4452,-122.1061C4452,-141.3391 4452,-169 4452,-169 4452,-169 3058.6877,-169 3058.6877,-169"/>
<polygon fill="#000000" stroke="#000000" points="3058.6877,-165.5001 3048.6877,-169 3058.6876,-172.5001 3058.6877,-165.5001"/>
</g>
<!-- EventGalleryComponent -->
<g id="node10" class="node">
<title>EventGalleryComponent</title>
<polygon fill="#ffffb3" stroke="#000000" points="4359.9678,-122 4204.0322,-122 4204.0322,-86 4359.9678,-86 4359.9678,-122"/>
<text text-anchor="middle" x="4282" y="-99.8" font-family="Times,serif" font-size="14.00" fill="#000000">EventGalleryComponent</text>
</g>
<!-- EventGalleryComponent&#45;&gt;AppModule -->
<g id="edge10" class="edge">
<title>EventGalleryComponent&#45;&gt;AppModule</title>
<path fill="none" stroke="#000000" d="M4282,-122.2222C4282,-140.8285 4282,-167 4282,-167 4282,-167 3058.6966,-167 3058.6966,-167"/>
<polygon fill="#000000" stroke="#000000" points="3058.6967,-163.5001 3048.6966,-167 3058.6966,-170.5001 3058.6967,-163.5001"/>
</g>
<!-- EventListComponent -->
<g id="node11" class="node">
<title>EventListComponent</title>
<polygon fill="#ffffb3" stroke="#000000" points="4185.7688,-122 4050.2312,-122 4050.2312,-86 4185.7688,-86 4185.7688,-122"/>
<text text-anchor="middle" x="4118" y="-99.8" font-family="Times,serif" font-size="14.00" fill="#000000">EventListComponent</text>
</g>
<!-- EventListComponent&#45;&gt;AppModule -->
<g id="edge11" class="edge">
<title>EventListComponent&#45;&gt;AppModule</title>
<path fill="none" stroke="#000000" d="M4118,-122.302C4118,-140.2699 4118,-165 4118,-165 4118,-165 3058.8597,-165 3058.8597,-165"/>
<polygon fill="#000000" stroke="#000000" points="3058.8598,-161.5001 3048.8597,-165 3058.8597,-168.5001 3058.8598,-161.5001"/>
</g>
<!-- FaceDetectComponent -->
<g id="node12" class="node">
<title>FaceDetectComponent</title>
<polygon fill="#ffffb3" stroke="#000000" points="4032.2907,-122 3887.7093,-122 3887.7093,-86 4032.2907,-86 4032.2907,-122"/>
<text text-anchor="middle" x="3960" y="-99.8" font-family="Times,serif" font-size="14.00" fill="#000000">FaceDetectComponent</text>
</g>
<!-- FaceDetectComponent&#45;&gt;AppModule -->
<g id="edge12" class="edge">
<title>FaceDetectComponent&#45;&gt;AppModule</title>
<path fill="none" stroke="#000000" d="M3960,-122.0225C3960,-139.3734 3960,-163 3960,-163 3960,-163 3058.8699,-163 3058.8699,-163"/>
<polygon fill="#000000" stroke="#000000" points="3058.87,-159.5001 3048.8699,-163 3058.8699,-166.5001 3058.87,-159.5001"/>
</g>
<!-- FileDropDirective -->
<g id="node13" class="node">
<title>FileDropDirective</title>
<polygon fill="#ffffb3" stroke="#000000" points="3870.129,-122 3751.871,-122 3751.871,-86 3870.129,-86 3870.129,-122"/>
<text text-anchor="middle" x="3811" y="-99.8" font-family="Times,serif" font-size="14.00" fill="#000000">FileDropDirective</text>
</g>
<!-- FileDropDirective&#45;&gt;AppModule -->
<g id="edge13" class="edge">
<title>FileDropDirective&#45;&gt;AppModule</title>
<path fill="none" stroke="#000000" d="M3811,-122.0352C3811,-138.7344 3811,-161 3811,-161 3811,-161 3058.8136,-161 3058.8136,-161"/>
<polygon fill="#000000" stroke="#000000" points="3058.8136,-157.5001 3048.8136,-161 3058.8136,-164.5001 3058.8136,-157.5001"/>
</g>
<!-- FourZeroFourPageComponent -->
<g id="node14" class="node">
<title>FourZeroFourPageComponent</title>
<polygon fill="#ffffb3" stroke="#000000" points="3733.8585,-122 3546.1415,-122 3546.1415,-86 3733.8585,-86 3733.8585,-122"/>
<text text-anchor="middle" x="3640" y="-99.8" font-family="Times,serif" font-size="14.00" fill="#000000">FourZeroFourPageComponent</text>
</g>
<!-- FourZeroFourPageComponent&#45;&gt;AppModule -->
<g id="edge14" class="edge">
<title>FourZeroFourPageComponent&#45;&gt;AppModule</title>
<path fill="none" stroke="#000000" d="M3640,-122.0091C3640,-138.0494 3640,-159 3640,-159 3640,-159 3059.0231,-159 3059.0231,-159"/>
<polygon fill="#000000" stroke="#000000" points="3059.0232,-155.5001 3049.0231,-159 3059.0231,-162.5001 3059.0232,-155.5001"/>
</g>
<!-- FriendListComponent -->
<g id="node15" class="node">
<title>FriendListComponent</title>
<polygon fill="#ffffb3" stroke="#000000" points="3527.6596,-122 3388.3404,-122 3388.3404,-86 3527.6596,-86 3527.6596,-122"/>
<text text-anchor="middle" x="3458" y="-99.8" font-family="Times,serif" font-size="14.00" fill="#000000">FriendListComponent</text>
</g>
<!-- FriendListComponent&#45;&gt;AppModule -->
<g id="edge15" class="edge">
<title>FriendListComponent&#45;&gt;AppModule</title>
<path fill="none" stroke="#000000" d="M3458,-122.2396C3458,-137.5706 3458,-157 3458,-157 3458,-157 3059.024,-157 3059.024,-157"/>
<polygon fill="#000000" stroke="#000000" points="3059.024,-153.5001 3049.024,-157 3059.024,-160.5001 3059.024,-153.5001"/>
</g>
<!-- LoginComponent -->
<g id="node16" class="node">
<title>LoginComponent</title>
<polygon fill="#ffffb3" stroke="#000000" points="3370.2758,-122 3255.7242,-122 3255.7242,-86 3370.2758,-86 3370.2758,-122"/>
<text text-anchor="middle" x="3313" y="-99.8" font-family="Times,serif" font-size="14.00" fill="#000000">LoginComponent</text>
</g>
<!-- LoginComponent&#45;&gt;AppModule -->
<g id="edge16" class="edge">
<title>LoginComponent&#45;&gt;AppModule</title>
<path fill="none" stroke="#000000" d="M3313,-122.1243C3313,-136.7832 3313,-155 3313,-155 3313,-155 3058.9064,-155 3058.9064,-155"/>
<polygon fill="#000000" stroke="#000000" points="3058.9064,-151.5001 3048.9064,-155 3058.9063,-158.5001 3058.9064,-151.5001"/>
</g>
<!-- MainLayoutComponent -->
<g id="node17" class="node">
<title>MainLayoutComponent</title>
<polygon fill="#ffffb3" stroke="#000000" points="3237.0407,-122 3086.9593,-122 3086.9593,-86 3237.0407,-86 3237.0407,-122"/>
<text text-anchor="middle" x="3162" y="-99.8" font-family="Times,serif" font-size="14.00" fill="#000000">MainLayoutComponent</text>
</g>
<!-- MainLayoutComponent&#45;&gt;AppModule -->
<g id="edge17" class="edge">
<title>MainLayoutComponent&#45;&gt;AppModule</title>
<path fill="none" stroke="#000000" d="M3162,-122.2458C3162,-136.1772 3162,-153 3162,-153 3162,-153 3058.9452,-153 3058.9452,-153"/>
<polygon fill="#000000" stroke="#000000" points="3058.9453,-149.5001 3048.9452,-153 3058.9452,-156.5001 3058.9453,-149.5001"/>
</g>
<!-- NavbarComponent -->
<g id="node18" class="node">
<title>NavbarComponent</title>
<polygon fill="#ffffb3" stroke="#000000" points="3068.0297,-122 2945.9703,-122 2945.9703,-86 3068.0297,-86 3068.0297,-122"/>
<text text-anchor="middle" x="3007" y="-99.8" font-family="Times,serif" font-size="14.00" fill="#000000">NavbarComponent</text>
</g>
<!-- NavbarComponent&#45;&gt;AppModule -->
<g id="edge18" class="edge">
<title>NavbarComponent&#45;&gt;AppModule</title>
<path fill="none" stroke="#000000" d="M3007,-122.1061C3007,-122.1061 3007,-140.991 3007,-140.991"/>
<polygon fill="#000000" stroke="#000000" points="3003.5001,-140.9909 3007,-150.991 3010.5001,-140.991 3003.5001,-140.9909"/>
</g>
<!-- OtherPhotosComponent -->
<g id="node19" class="node">
<title>OtherPhotosComponent</title>
<polygon fill="#ffffb3" stroke="#000000" points="2927.8229,-122 2776.1771,-122 2776.1771,-86 2927.8229,-86 2927.8229,-122"/>
<text text-anchor="middle" x="2852" y="-99.8" font-family="Times,serif" font-size="14.00" fill="#000000">OtherPhotosComponent</text>
</g>
<!-- OtherPhotosComponent&#45;&gt;AppModule -->
<g id="edge19" class="edge">
<title>OtherPhotosComponent&#45;&gt;AppModule</title>
<path fill="none" stroke="#000000" d="M2852,-122.2458C2852,-136.1772 2852,-153 2852,-153 2852,-153 2955.0548,-153 2955.0548,-153"/>
<polygon fill="#000000" stroke="#000000" points="2955.0548,-156.5001 2965.0548,-153 2955.0547,-149.5001 2955.0548,-156.5001"/>
</g>
<!-- PasswordCheckingComponent -->
<g id="node20" class="node">
<title>PasswordCheckingComponent</title>
<polygon fill="#ffffb3" stroke="#000000" points="2758.1427,-122 2569.8573,-122 2569.8573,-86 2758.1427,-86 2758.1427,-122"/>
<text text-anchor="middle" x="2664" y="-99.8" font-family="Times,serif" font-size="14.00" fill="#000000">PasswordCheckingComponent</text>
</g>
<!-- PasswordCheckingComponent&#45;&gt;AppModule -->
<g id="edge20" class="edge">
<title>PasswordCheckingComponent&#45;&gt;AppModule</title>
<path fill="none" stroke="#000000" d="M2664,-122.1243C2664,-136.7832 2664,-155 2664,-155 2664,-155 2955.2844,-155 2955.2844,-155"/>
<polygon fill="#000000" stroke="#000000" points="2955.2844,-158.5001 2965.2844,-155 2955.2843,-151.5001 2955.2844,-158.5001"/>
</g>
<!-- PeopleListComponent -->
<g id="node21" class="node">
<title>PeopleListComponent</title>
<polygon fill="#ffffb3" stroke="#000000" points="2551.7134,-122 2410.2866,-122 2410.2866,-86 2551.7134,-86 2551.7134,-122"/>
<text text-anchor="middle" x="2481" y="-99.8" font-family="Times,serif" font-size="14.00" fill="#000000">PeopleListComponent</text>
</g>
<!-- PeopleListComponent&#45;&gt;AppModule -->
<g id="edge21" class="edge">
<title>PeopleListComponent&#45;&gt;AppModule</title>
<path fill="none" stroke="#000000" d="M2481,-122.2396C2481,-137.5706 2481,-157 2481,-157 2481,-157 2955.286,-157 2955.286,-157"/>
<polygon fill="#000000" stroke="#000000" points="2955.286,-160.5001 2965.286,-157 2955.286,-153.5001 2955.286,-160.5001"/>
</g>
<!-- PhotoThambnailComponent -->
<g id="node22" class="node">
<title>PhotoThambnailComponent</title>
<polygon fill="#ffffb3" stroke="#000000" points="2392.1595,-122 2217.8405,-122 2217.8405,-86 2392.1595,-86 2392.1595,-122"/>
<text text-anchor="middle" x="2305" y="-99.8" font-family="Times,serif" font-size="14.00" fill="#000000">PhotoThambnailComponent</text>
</g>
<!-- PhotoThambnailComponent&#45;&gt;AppModule -->
<g id="edge22" class="edge">
<title>PhotoThambnailComponent&#45;&gt;AppModule</title>
<path fill="none" stroke="#000000" d="M2305,-122.0091C2305,-138.0494 2305,-159 2305,-159 2305,-159 2955.189,-159 2955.189,-159"/>
<polygon fill="#000000" stroke="#000000" points="2955.189,-162.5001 2965.189,-159 2955.189,-155.5001 2955.189,-162.5001"/>
</g>
<!-- PhotoViewerComponent -->
<g id="node23" class="node">
<title>PhotoViewerComponent</title>
<polygon fill="#ffffb3" stroke="#000000" points="2199.6993,-122 2044.3007,-122 2044.3007,-86 2199.6993,-86 2199.6993,-122"/>
<text text-anchor="middle" x="2122" y="-99.8" font-family="Times,serif" font-size="14.00" fill="#000000">PhotoViewerComponent</text>
</g>
<!-- PhotoViewerComponent&#45;&gt;AppModule -->
<g id="edge23" class="edge">
<title>PhotoViewerComponent&#45;&gt;AppModule</title>
<path fill="none" stroke="#000000" d="M2122,-122.0352C2122,-138.7344 2122,-161 2122,-161 2122,-161 2955.2063,-161 2955.2063,-161"/>
<polygon fill="#000000" stroke="#000000" points="2955.2063,-164.5001 2965.2063,-161 2955.2062,-157.5001 2955.2063,-164.5001"/>
</g>
<!-- ProfileComponent -->
<g id="node24" class="node">
<title>ProfileComponent</title>
<polygon fill="#ffffb3" stroke="#000000" points="2026.9328,-122 1907.0672,-122 1907.0672,-86 2026.9328,-86 2026.9328,-122"/>
<text text-anchor="middle" x="1967" y="-99.8" font-family="Times,serif" font-size="14.00" fill="#000000">ProfileComponent</text>
</g>
<!-- ProfileComponent&#45;&gt;AppModule -->
<g id="edge24" class="edge">
<title>ProfileComponent&#45;&gt;AppModule</title>
<path fill="none" stroke="#000000" d="M1967,-122.0225C1967,-139.3734 1967,-163 1967,-163 1967,-163 2955.2664,-163 2955.2664,-163"/>
<polygon fill="#000000" stroke="#000000" points="2955.2664,-166.5001 2965.2664,-163 2955.2664,-159.5001 2955.2664,-166.5001"/>
</g>
<!-- ReDirectToLatestEventComponent -->
<g id="node25" class="node">
<title>ReDirectToLatestEventComponent</title>
<polygon fill="#ffffb3" stroke="#000000" points="1889.2794,-122 1674.7206,-122 1674.7206,-86 1889.2794,-86 1889.2794,-122"/>
<text text-anchor="middle" x="1782" y="-99.8" font-family="Times,serif" font-size="14.00" fill="#000000">ReDirectToLatestEventComponent</text>
</g>
<!-- ReDirectToLatestEventComponent&#45;&gt;AppModule -->
<g id="edge25" class="edge">
<title>ReDirectToLatestEventComponent&#45;&gt;AppModule</title>
<path fill="none" stroke="#000000" d="M1782,-122.302C1782,-140.2699 1782,-165 1782,-165 1782,-165 2955.1871,-165 2955.1871,-165"/>
<polygon fill="#000000" stroke="#000000" points="2955.1871,-168.5001 2965.1871,-165 2955.1871,-161.5001 2955.1871,-168.5001"/>
</g>
<!-- RegistrationComponent -->
<g id="node26" class="node">
<title>RegistrationComponent</title>
<polygon fill="#ffffb3" stroke="#000000" points="1656.766,-122 1507.234,-122 1507.234,-86 1656.766,-86 1656.766,-122"/>
<text text-anchor="middle" x="1582" y="-99.8" font-family="Times,serif" font-size="14.00" fill="#000000">RegistrationComponent</text>
</g>
<!-- RegistrationComponent&#45;&gt;AppModule -->
<g id="edge26" class="edge">
<title>RegistrationComponent&#45;&gt;AppModule</title>
<path fill="none" stroke="#000000" d="M1582,-122.2222C1582,-140.8285 1582,-167 1582,-167 1582,-167 2955.1242,-167 2955.1242,-167"/>
<polygon fill="#000000" stroke="#000000" points="2955.1242,-170.5001 2965.1242,-167 2955.1242,-163.5001 2955.1242,-170.5001"/>
</g>
<!-- SearchEventComponent -->
<g id="node27" class="node">
<title>SearchEventComponent</title>
<polygon fill="#ffffb3" stroke="#000000" points="1489.0772,-122 1336.9228,-122 1336.9228,-86 1489.0772,-86 1489.0772,-122"/>
<text text-anchor="middle" x="1413" y="-99.8" font-family="Times,serif" font-size="14.00" fill="#000000">SearchEventComponent</text>
</g>
<!-- SearchEventComponent&#45;&gt;AppModule -->
<g id="edge27" class="edge">
<title>SearchEventComponent&#45;&gt;AppModule</title>
<path fill="none" stroke="#000000" d="M1413,-122.1061C1413,-141.3391 1413,-169 1413,-169 1413,-169 2955.1837,-169 2955.1837,-169"/>
<polygon fill="#000000" stroke="#000000" points="2955.1837,-172.5001 2965.1837,-169 2955.1837,-165.5001 2955.1837,-172.5001"/>
</g>
<!-- SidebarComponent -->
<g id="node28" class="node">
<title>SidebarComponent</title>
<polygon fill="#ffffb3" stroke="#000000" points="1319.0954,-122 1194.9046,-122 1194.9046,-86 1319.0954,-86 1319.0954,-122"/>
<text text-anchor="middle" x="1257" y="-99.8" font-family="Times,serif" font-size="14.00" fill="#000000">SidebarComponent</text>
</g>
<!-- SidebarComponent&#45;&gt;AppModule -->
<g id="edge28" class="edge">
<title>SidebarComponent&#45;&gt;AppModule</title>
<path fill="none" stroke="#000000" d="M1257,-122.308C1257,-142.1455 1257,-171 1257,-171 1257,-171 2955.0389,-171 2955.0389,-171"/>
<polygon fill="#000000" stroke="#000000" points="2955.039,-174.5001 2965.0389,-171 2955.0389,-167.5001 2955.039,-174.5001"/>
</g>
<!-- SlideShowComponent -->
<g id="node29" class="node">
<title>SlideShowComponent</title>
<polygon fill="#ffffb3" stroke="#000000" points="1177,-122 1035,-122 1035,-86 1177,-86 1177,-122"/>
<text text-anchor="middle" x="1106" y="-99.8" font-family="Times,serif" font-size="14.00" fill="#000000">SlideShowComponent</text>
</g>
<!-- SlideShowComponent&#45;&gt;AppModule -->
<g id="edge29" class="edge">
<title>SlideShowComponent&#45;&gt;AppModule</title>
<path fill="none" stroke="#000000" d="M1106,-122.1289C1106,-142.5724 1106,-173 1106,-173 1106,-173 2955.0794,-173 2955.0794,-173"/>
<polygon fill="#000000" stroke="#000000" points="2955.0794,-176.5001 2965.0794,-173 2955.0794,-169.5001 2955.0794,-176.5001"/>
</g>
<!-- TimelineComponent -->
<g id="node30" class="node">
<title>TimelineComponent</title>
<polygon fill="#ffffb3" stroke="#000000" points="1016.8767,-122 885.1233,-122 885.1233,-86 1016.8767,-86 1016.8767,-122"/>
<text text-anchor="middle" x="951" y="-99.8" font-family="Times,serif" font-size="14.00" fill="#000000">TimelineComponent</text>
</g>
<!-- TimelineComponent&#45;&gt;AppModule -->
<g id="edge30" class="edge">
<title>TimelineComponent&#45;&gt;AppModule</title>
<path fill="none" stroke="#000000" d="M951,-122.2843C951,-143.3211 951,-175 951,-175 951,-175 2954.999,-175 2954.999,-175"/>
<polygon fill="#000000" stroke="#000000" points="2954.999,-178.5001 2964.999,-175 2954.9989,-171.5001 2954.999,-178.5001"/>
</g>
<!-- WebviewDirective -->
<g id="node31" class="node">
<title>WebviewDirective</title>
<polygon fill="#ffffb3" stroke="#000000" points="866.7241,-122 745.2759,-122 745.2759,-86 866.7241,-86 866.7241,-122"/>
<text text-anchor="middle" x="806" y="-99.8" font-family="Times,serif" font-size="14.00" fill="#000000">WebviewDirective</text>
</g>
<!-- WebviewDirective&#45;&gt;AppModule -->
<g id="edge31" class="edge">
<title>WebviewDirective&#45;&gt;AppModule</title>
<path fill="none" stroke="#000000" d="M806,-122.0449C806,-143.6623 806,-177 806,-177 806,-177 2954.9975,-177 2954.9975,-177"/>
<polygon fill="#000000" stroke="#000000" points="2954.9975,-180.5001 2964.9975,-177 2954.9974,-173.5001 2954.9975,-180.5001"/>
</g>
<!-- AppComponent  -->
<g id="node35" class="node">
<title>AppComponent </title>
<polygon fill="#80b1d3" stroke="#000000" points="3061.439,-252 2952.561,-252 2952.561,-216 3061.439,-216 3061.439,-252"/>
<text text-anchor="middle" x="3007" y="-229.8" font-family="Times,serif" font-size="14.00" fill="#000000">AppComponent </text>
</g>
<!-- AppModule&#45;&gt;AppComponent  -->
<g id="edge34" class="edge">
<title>AppModule&#45;&gt;AppComponent </title>
<path fill="none" stroke="#000000" stroke-dasharray="1,5" d="M3007,-187.1061C3007,-187.1061 3007,-205.991 3007,-205.991"/>
<polygon fill="#000000" stroke="#000000" points="3003.5001,-205.9909 3007,-215.991 3010.5001,-205.991 3003.5001,-205.9909"/>
</g>
<!-- AngularMaterialModule -->
<g id="node33" class="node">
<title>AngularMaterialModule</title>
<polygon fill="#8dd3c7" stroke="#000000" points="721.3431,-122 718.3431,-126 697.3431,-126 694.3431,-122 568.6569,-122 568.6569,-86 721.3431,-86 721.3431,-122"/>
<text text-anchor="middle" x="645" y="-99.8" font-family="Times,serif" font-size="14.00" fill="#000000">AngularMaterialModule</text>
</g>
<!-- AngularMaterialModule&#45;&gt;AppModule -->
<g id="edge32" class="edge">
<title>AngularMaterialModule&#45;&gt;AppModule</title>
<path fill="none" stroke="#000000" d="M645,-122.1554C645,-144.3519 645,-179 645,-179 645,-179 2955.2523,-179 2955.2523,-179"/>
<polygon fill="#000000" stroke="#000000" points="2955.2523,-182.5001 2965.2523,-179 2955.2523,-175.5001 2955.2523,-182.5001"/>
</g>
<!-- AppRoutingModule -->
<g id="node34" class="node">
<title>AppRoutingModule</title>
<polygon fill="#8dd3c7" stroke="#000000" points="550.2744,-122 547.2744,-126 526.2744,-126 523.2744,-122 421.7256,-122 421.7256,-86 550.2744,-86 550.2744,-122"/>
<text text-anchor="middle" x="486" y="-99.8" font-family="Times,serif" font-size="14.00" fill="#000000">AppRoutingModule</text>
</g>
<!-- AppRoutingModule&#45;&gt;AppModule -->
<g id="edge33" class="edge">
<title>AppRoutingModule&#45;&gt;AppModule</title>
<path fill="none" stroke="#000000" d="M486,-122.2479C486,-145.0179 486,-181 486,-181 486,-181 2955.0864,-181 2955.0864,-181"/>
<polygon fill="#000000" stroke="#000000" points="2955.0865,-184.5001 2965.0864,-181 2955.0864,-177.5001 2955.0865,-184.5001"/>
</g>
<!-- ElectronService -->
<g id="node36" class="node">
<title>ElectronService</title>
<ellipse fill="#fdb462" stroke="#000000" cx="325" cy="-104" rx="72.9082" ry="18"/>
<text text-anchor="middle" x="325" y="-99.8" font-family="Times,serif" font-size="14.00" fill="#000000">ElectronService</text>
</g>
<!-- ElectronService&#45;&gt;AppModule -->
<g id="edge35" class="edge">
<title>ElectronService&#45;&gt;AppModule</title>
<path fill="none" stroke="#000000" d="M325,-122.3228C325,-145.6602 325,-183 325,-183 325,-183 2955.1417,-183 2955.1417,-183"/>
<polygon fill="#000000" stroke="#000000" points="2955.1418,-186.5001 2965.1417,-183 2955.1417,-179.5001 2955.1418,-186.5001"/>
</g>
<!-- FaceRecognitionService -->
<g id="node37" class="node">
<title>FaceRecognitionService</title>
<ellipse fill="#fdb462" stroke="#000000" cx="129" cy="-104" rx="105.3547" ry="18"/>
<text text-anchor="middle" x="129" y="-99.8" font-family="Times,serif" font-size="14.00" fill="#000000">FaceRecognitionService</text>
</g>
<!-- FaceRecognitionService&#45;&gt;AppModule -->
<g id="edge36" class="edge">
<title>FaceRecognitionService&#45;&gt;AppModule</title>
<path fill="none" stroke="#000000" d="M129,-122.3802C129,-146.2785 129,-185 129,-185 129,-185 2955.2063,-185 2955.2063,-185"/>
<polygon fill="#000000" stroke="#000000" points="2955.2063,-188.5001 2965.2063,-185 2955.2063,-181.5001 2955.2063,-188.5001"/>
</g>
</g>
</svg>
