<?xml version="1.0" encoding="UTF-8" standalone="no"?>
<!DOCTYPE svg PUBLIC "-//W3C//DTD SVG 1.1//EN"
 "http://www.w3.org/Graphics/SVG/1.1/DTD/svg11.dtd">
<!-- Generated by graphviz version 2.40.1 (20161225.0304)
 -->
<!-- Title: dependencies Pages: 1 -->
<svg width="5670pt" height="284pt"
 viewBox="0.00 0.00 5670.00 284.00" xmlns="http://www.w3.org/2000/svg" xmlns:xlink="http://www.w3.org/1999/xlink">
<g id="graph0" class="graph" transform="scale(1 1) rotate(0) translate(4 280)">
<title>dependencies</title>
<polygon fill="#ffffff" stroke="transparent" points="-4,4 -4,-280 5666,-280 5666,4 -4,4"/>
<text text-anchor="start" x="2810.0091" y="-42.4" font-family="sans-serif" font-weight="bold" font-size="14.00" fill="#000000">Legend</text>
<polygon fill="#ffffb3" stroke="transparent" points="2597,-10 2597,-30 2617,-30 2617,-10 2597,-10"/>
<text text-anchor="start" x="2620.629" y="-15.4" font-family="sans-serif" font-size="14.00" fill="#000000"> &#160;Declarations</text>
<polygon fill="#8dd3c7" stroke="transparent" points="2710,-10 2710,-30 2730,-30 2730,-10 2710,-10"/>
<text text-anchor="start" x="2733.7251" y="-15.4" font-family="sans-serif" font-size="14.00" fill="#000000"> &#160;Module</text>
<polygon fill="#80b1d3" stroke="transparent" points="2796,-10 2796,-30 2816,-30 2816,-10 2796,-10"/>
<text text-anchor="start" x="2819.7812" y="-15.4" font-family="sans-serif" font-size="14.00" fill="#000000"> &#160;Bootstrap</text>
<polygon fill="#fdb462" stroke="transparent" points="2893,-10 2893,-30 2913,-30 2913,-10 2893,-10"/>
<text text-anchor="start" x="2916.6732" y="-15.4" font-family="sans-serif" font-size="14.00" fill="#000000"> &#160;Providers</text>
<polygon fill="#fb8072" stroke="transparent" points="2989,-10 2989,-30 3009,-30 3009,-10 2989,-10"/>
<text text-anchor="start" x="3012.7258" y="-15.4" font-family="sans-serif" font-size="14.00" fill="#000000"> &#160;Exports</text>
<g id="clust7" class="cluster">
<title>cluster_AppModule</title>
<polygon fill="none" stroke="#000000" stroke-dasharray="1,5" points="8,-70 8,-268 5654,-268 5654,-70 8,-70"/>
</g>
<g id="clust8" class="cluster">
<title>cluster_AppModule_declarations</title>
<polygon fill="none" stroke="#000000" points="737,-78 737,-130 5646,-130 5646,-78 737,-78"/>
</g>
<g id="clust39" class="cluster">
<title>cluster_AppModule_imports</title>
<polygon fill="none" stroke="#000000" points="414,-78 414,-130 729,-130 729,-78 414,-78"/>
</g>
<g id="clust41" class="cluster">
<title>cluster_AppModule_bootstrap</title>
<polygon fill="none" stroke="#000000" points="2867,-208 2867,-260 2991,-260 2991,-208 2867,-208"/>
</g>
<g id="clust42" class="cluster">
<title>cluster_AppModule_providers</title>
<polygon fill="none" stroke="#000000" points="16,-78 16,-130 406,-130 406,-78 16,-78"/>
</g>
<!-- AddFriendComponent -->
<g id="node1" class="node">
<title>AddFriendComponent</title>
<polygon fill="#ffffb3" stroke="#000000" points="5637.9874,-122 5496.0126,-122 5496.0126,-86 5637.9874,-86 5637.9874,-122"/>
<text text-anchor="middle" x="5567" y="-99.8" font-family="Times,serif" font-size="14.00" fill="#000000">AddFriendComponent</text>
</g>
<!-- AppModule -->
<g id="node31" class="node">
<title>AppModule</title>
<polygon fill="#8dd3c7" stroke="#000000" points="2970.6571,-187 2967.6571,-191 2946.6571,-191 2943.6571,-187 2887.3429,-187 2887.3429,-151 2970.6571,-151 2970.6571,-187"/>
<text text-anchor="middle" x="2929" y="-164.8" font-family="Times,serif" font-size="14.00" fill="#000000">AppModule</text>
</g>
<!-- AddFriendComponent&#45;&gt;AppModule -->
<g id="edge1" class="edge">
<title>AddFriendComponent&#45;&gt;AppModule</title>
<path fill="none" stroke="#000000" d="M5567,-122.3802C5567,-146.2785 5567,-185 5567,-185 5567,-185 2980.7026,-185 2980.7026,-185"/>
<polygon fill="#000000" stroke="#000000" points="2980.7026,-181.5001 2970.7026,-185 2980.7026,-188.5001 2980.7026,-181.5001"/>
</g>
<!-- AdvanceSearchComponent -->
<g id="node2" class="node">
<title>AdvanceSearchComponent</title>
<polygon fill="#ffffb3" stroke="#000000" points="5477.6699,-122 5308.3301,-122 5308.3301,-86 5477.6699,-86 5477.6699,-122"/>
<text text-anchor="middle" x="5393" y="-99.8" font-family="Times,serif" font-size="14.00" fill="#000000">AdvanceSearchComponent</text>
</g>
<!-- AdvanceSearchComponent&#45;&gt;AppModule -->
<g id="edge2" class="edge">
<title>AdvanceSearchComponent&#45;&gt;AppModule</title>
<path fill="none" stroke="#000000" d="M5393,-122.3228C5393,-145.6602 5393,-183 5393,-183 5393,-183 2980.7335,-183 2980.7335,-183"/>
<polygon fill="#000000" stroke="#000000" points="2980.7335,-179.5001 2970.7335,-183 2980.7334,-186.5001 2980.7335,-179.5001"/>
</g>
<!-- AppComponent -->
<g id="node3" class="node">
<title>AppComponent</title>
<polygon fill="#ffffb3" stroke="#000000" points="5290.9399,-122 5185.0601,-122 5185.0601,-86 5290.9399,-86 5290.9399,-122"/>
<text text-anchor="middle" x="5238" y="-99.8" font-family="Times,serif" font-size="14.00" fill="#000000">AppComponent</text>
</g>
<!-- AppComponent&#45;&gt;AppModule -->
<g id="edge3" class="edge">
<title>AppComponent&#45;&gt;AppModule</title>
<path fill="none" stroke="#000000" d="M5238,-122.2479C5238,-145.0179 5238,-181 5238,-181 5238,-181 2981.0481,-181 2981.0481,-181"/>
<polygon fill="#000000" stroke="#000000" points="2981.0481,-177.5001 2971.0481,-181 2981.048,-184.5001 2981.0481,-177.5001"/>
</g>
<!-- CreateEventComponent -->
<g id="node4" class="node">
<title>CreateEventComponent</title>
<polygon fill="#ffffb3" stroke="#000000" points="5167.0226,-122 5016.9774,-122 5016.9774,-86 5167.0226,-86 5167.0226,-122"/>
<text text-anchor="middle" x="5092" y="-99.8" font-family="Times,serif" font-size="14.00" fill="#000000">CreateEventComponent</text>
</g>
<!-- CreateEventComponent&#45;&gt;AppModule -->
<g id="edge4" class="edge">
<title>CreateEventComponent&#45;&gt;AppModule</title>
<path fill="none" stroke="#000000" d="M5092,-122.1554C5092,-144.3519 5092,-179 5092,-179 5092,-179 2980.7558,-179 2980.7558,-179"/>
<polygon fill="#000000" stroke="#000000" points="2980.7559,-175.5001 2970.7558,-179 2980.7558,-182.5001 2980.7559,-175.5001"/>
</g>
<!-- DocumentsComponent -->
<g id="node5" class="node">
<title>DocumentsComponent</title>
<polygon fill="#ffffb3" stroke="#000000" points="4998.594,-122 4853.406,-122 4853.406,-86 4998.594,-86 4998.594,-122"/>
<text text-anchor="middle" x="4926" y="-99.8" font-family="Times,serif" font-size="14.00" fill="#000000">DocumentsComponent</text>
</g>
<!-- DocumentsComponent&#45;&gt;AppModule -->
<g id="edge5" class="edge">
<title>DocumentsComponent&#45;&gt;AppModule</title>
<path fill="none" stroke="#000000" d="M4926,-122.0449C4926,-143.6623 4926,-177 4926,-177 4926,-177 2980.7102,-177 2980.7102,-177"/>
<polygon fill="#000000" stroke="#000000" points="2980.7102,-173.5001 2970.7102,-177 2980.7101,-180.5001 2980.7102,-173.5001"/>
</g>
<!-- DuplicateComponent -->
<g id="node6" class="node">
<title>DuplicateComponent</title>
<polygon fill="#ffffb3" stroke="#000000" points="4835.7548,-122 4700.2452,-122 4700.2452,-86 4835.7548,-86 4835.7548,-122"/>
<text text-anchor="middle" x="4768" y="-99.8" font-family="Times,serif" font-size="14.00" fill="#000000">DuplicateComponent</text>
</g>
<!-- DuplicateComponent&#45;&gt;AppModule -->
<g id="edge6" class="edge">
<title>DuplicateComponent&#45;&gt;AppModule</title>
<path fill="none" stroke="#000000" d="M4768,-122.2843C4768,-143.3211 4768,-175 4768,-175 4768,-175 2980.8653,-175 2980.8653,-175"/>
<polygon fill="#000000" stroke="#000000" points="2980.8654,-171.5001 2970.8653,-175 2980.8653,-178.5001 2980.8654,-171.5001"/>
</g>
<!-- EditEventComponent -->
<g id="node7" class="node">
<title>EditEventComponent</title>
<polygon fill="#ffffb3" stroke="#000000" points="4681.8244,-122 4544.1756,-122 4544.1756,-86 4681.8244,-86 4681.8244,-122"/>
<text text-anchor="middle" x="4613" y="-99.8" font-family="Times,serif" font-size="14.00" fill="#000000">EditEventComponent</text>
</g>
<!-- EditEventComponent&#45;&gt;AppModule -->
<g id="edge7" class="edge">
<title>EditEventComponent&#45;&gt;AppModule</title>
<path fill="none" stroke="#000000" d="M4613,-122.1289C4613,-142.5724 4613,-173 4613,-173 4613,-173 2981.0473,-173 2981.0473,-173"/>
<polygon fill="#000000" stroke="#000000" points="2981.0474,-169.5001 2971.0473,-173 2981.0473,-176.5001 2981.0474,-169.5001"/>
</g>
<!-- EventDetailComponent -->
<g id="node8" class="node">
<title>EventDetailComponent</title>
<polygon fill="#ffffb3" stroke="#000000" points="4526.1979,-122 4377.8021,-122 4377.8021,-86 4526.1979,-86 4526.1979,-122"/>
<text text-anchor="middle" x="4452" y="-99.8" font-family="Times,serif" font-size="14.00" fill="#000000">EventDetailComponent</text>
</g>
<!-- EventDetailComponent&#45;&gt;AppModule -->
<g id="edge8" class="edge">
<title>EventDetailComponent&#45;&gt;AppModule</title>
<path fill="none" stroke="#000000" d="M4452,-122.308C4452,-142.1455 4452,-171 4452,-171 4452,-171 2980.924,-171 2980.924,-171"/>
<polygon fill="#000000" stroke="#000000" points="2980.924,-167.5001 2970.924,-171 2980.924,-174.5001 2980.924,-167.5001"/>
</g>
<!-- EventGalleryComponent -->
<g id="node9" class="node">
<title>EventGalleryComponent</title>
<polygon fill="#ffffb3" stroke="#000000" points="4359.9678,-122 4204.0322,-122 4204.0322,-86 4359.9678,-86 4359.9678,-122"/>
<text text-anchor="middle" x="4282" y="-99.8" font-family="Times,serif" font-size="14.00" fill="#000000">EventGalleryComponent</text>
</g>
<!-- EventGalleryComponent&#45;&gt;AppModule -->
<g id="edge9" class="edge">
<title>EventGalleryComponent&#45;&gt;AppModule</title>
<path fill="none" stroke="#000000" d="M4282,-122.1686C4282,-141.0898 4282,-168 4282,-168 4282,-168 2980.9763,-168 2980.9763,-168"/>
<polygon fill="#000000" stroke="#000000" points="2980.9763,-164.5001 2970.9763,-168 2980.9762,-171.5001 2980.9763,-164.5001"/>
</g>
<!-- EventListComponent -->
<g id="node10" class="node">
<title>EventListComponent</title>
<polygon fill="#ffffb3" stroke="#000000" points="4185.7688,-122 4050.2312,-122 4050.2312,-86 4185.7688,-86 4185.7688,-122"/>
<text text-anchor="middle" x="4118" y="-99.8" font-family="Times,serif" font-size="14.00" fill="#000000">EventListComponent</text>
</g>
<!-- EventListComponent&#45;&gt;AppModule -->
<g id="edge10" class="edge">
<title>EventListComponent&#45;&gt;AppModule</title>
<path fill="none" stroke="#000000" d="M4118,-122.2667C4118,-140.5552 4118,-166 4118,-166 4118,-166 2980.9679,-166 2980.9679,-166"/>
<polygon fill="#000000" stroke="#000000" points="2980.9679,-162.5001 2970.9679,-166 2980.9679,-169.5001 2980.9679,-162.5001"/>
</g>
<!-- FaceDetectComponent -->
<g id="node11" class="node">
<title>FaceDetectComponent</title>
<polygon fill="#ffffb3" stroke="#000000" points="4032.2907,-122 3887.7093,-122 3887.7093,-86 4032.2907,-86 4032.2907,-122"/>
<text text-anchor="middle" x="3960" y="-99.8" font-family="Times,serif" font-size="14.00" fill="#000000">FaceDetectComponent</text>
</g>
<!-- FaceDetectComponent&#45;&gt;AppModule -->
<g id="edge11" class="edge">
<title>FaceDetectComponent&#45;&gt;AppModule</title>
<path fill="none" stroke="#000000" d="M3960,-122.002C3960,-139.6754 3960,-164 3960,-164 3960,-164 2980.6934,-164 2980.6934,-164"/>
<polygon fill="#000000" stroke="#000000" points="2980.6934,-160.5001 2970.6934,-164 2980.6933,-167.5001 2980.6934,-160.5001"/>
</g>
<!-- FileDropDirective -->
<g id="node12" class="node">
<title>FileDropDirective</title>
<polygon fill="#ffffb3" stroke="#000000" points="3870.129,-122 3751.871,-122 3751.871,-86 3870.129,-86 3870.129,-122"/>
<text text-anchor="middle" x="3811" y="-99.8" font-family="Times,serif" font-size="14.00" fill="#000000">FileDropDirective</text>
</g>
<!-- FileDropDirective&#45;&gt;AppModule -->
<g id="edge12" class="edge">
<title>FileDropDirective&#45;&gt;AppModule</title>
<path fill="none" stroke="#000000" d="M3811,-122.0336C3811,-139.0597 3811,-162 3811,-162 3811,-162 2980.9473,-162 2980.9473,-162"/>
<polygon fill="#000000" stroke="#000000" points="2980.9474,-158.5001 2970.9473,-162 2980.9473,-165.5001 2980.9474,-158.5001"/>
</g>
<!-- FourZeroFourPageComponent -->
<g id="node13" class="node">
<title>FourZeroFourPageComponent</title>
<polygon fill="#ffffb3" stroke="#000000" points="3733.8585,-122 3546.1415,-122 3546.1415,-86 3733.8585,-86 3733.8585,-122"/>
<text text-anchor="middle" x="3640" y="-99.8" font-family="Times,serif" font-size="14.00" fill="#000000">FourZeroFourPageComponent</text>
</g>
<!-- FourZeroFourPageComponent&#45;&gt;AppModule -->
<g id="edge13" class="edge">
<title>FourZeroFourPageComponent&#45;&gt;AppModule</title>
<path fill="none" stroke="#000000" d="M3640,-122.027C3640,-138.3976 3640,-160 3640,-160 3640,-160 2980.8219,-160 2980.8219,-160"/>
<polygon fill="#000000" stroke="#000000" points="2980.8219,-156.5001 2970.8219,-160 2980.8218,-163.5001 2980.8219,-156.5001"/>
</g>
<!-- FriendListComponent -->
<g id="node14" class="node">
<title>FriendListComponent</title>
<polygon fill="#ffffb3" stroke="#000000" points="3527.6596,-122 3388.3404,-122 3388.3404,-86 3527.6596,-86 3527.6596,-122"/>
<text text-anchor="middle" x="3458" y="-99.8" font-family="Times,serif" font-size="14.00" fill="#000000">FriendListComponent</text>
</g>
<!-- FriendListComponent&#45;&gt;AppModule -->
<g id="edge14" class="edge">
<title>FriendListComponent&#45;&gt;AppModule</title>
<path fill="none" stroke="#000000" d="M3458,-122.2819C3458,-137.9478 3458,-158 3458,-158 3458,-158 2980.9519,-158 2980.9519,-158"/>
<polygon fill="#000000" stroke="#000000" points="2980.9519,-154.5001 2970.9519,-158 2980.9519,-161.5001 2980.9519,-154.5001"/>
</g>
<!-- LoginComponent -->
<g id="node15" class="node">
<title>LoginComponent</title>
<polygon fill="#ffffb3" stroke="#000000" points="3370.2758,-122 3255.7242,-122 3255.7242,-86 3370.2758,-86 3370.2758,-122"/>
<text text-anchor="middle" x="3313" y="-99.8" font-family="Times,serif" font-size="14.00" fill="#000000">LoginComponent</text>
</g>
<!-- LoginComponent&#45;&gt;AppModule -->
<g id="edge15" class="edge">
<title>LoginComponent&#45;&gt;AppModule</title>
<path fill="none" stroke="#000000" d="M3313,-122.1871C3313,-137.1824 3313,-156 3313,-156 3313,-156 2980.8257,-156 2980.8257,-156"/>
<polygon fill="#000000" stroke="#000000" points="2980.8258,-152.5001 2970.8257,-156 2980.8257,-159.5001 2980.8258,-152.5001"/>
</g>
<!-- MainLayoutComponent -->
<g id="node16" class="node">
<title>MainLayoutComponent</title>
<polygon fill="#ffffb3" stroke="#000000" points="3237.0407,-122 3086.9593,-122 3086.9593,-86 3237.0407,-86 3237.0407,-122"/>
<text text-anchor="middle" x="3162" y="-99.8" font-family="Times,serif" font-size="14.00" fill="#000000">MainLayoutComponent</text>
</g>
<!-- MainLayoutComponent&#45;&gt;AppModule -->
<g id="edge16" class="edge">
<title>MainLayoutComponent&#45;&gt;AppModule</title>
<path fill="none" stroke="#000000" d="M3162,-122.0511C3162,-136.373 3162,-154 3162,-154 3162,-154 2980.9248,-154 2980.9248,-154"/>
<polygon fill="#000000" stroke="#000000" points="2980.9249,-150.5001 2970.9248,-154 2980.9248,-157.5001 2980.9249,-150.5001"/>
</g>
<!-- NavbarComponent -->
<g id="node17" class="node">
<title>NavbarComponent</title>
<polygon fill="#ffffb3" stroke="#000000" points="3068.0297,-122 2945.9703,-122 2945.9703,-86 3068.0297,-86 3068.0297,-122"/>
<text text-anchor="middle" x="3007" y="-99.8" font-family="Times,serif" font-size="14.00" fill="#000000">NavbarComponent</text>
</g>
<!-- NavbarComponent&#45;&gt;AppModule -->
<g id="edge17" class="edge">
<title>NavbarComponent&#45;&gt;AppModule</title>
<path fill="none" stroke="#000000" d="M2958.2819,-122.1061C2958.2819,-122.1061 2958.2819,-140.991 2958.2819,-140.991"/>
<polygon fill="#000000" stroke="#000000" points="2954.782,-140.9909 2958.2819,-150.991 2961.782,-140.991 2954.782,-140.9909"/>
</g>
<!-- OtherPhotosComponent -->
<g id="node18" class="node">
<title>OtherPhotosComponent</title>
<polygon fill="#ffffb3" stroke="#000000" points="2927.8229,-122 2776.1771,-122 2776.1771,-86 2927.8229,-86 2927.8229,-122"/>
<text text-anchor="middle" x="2852" y="-99.8" font-family="Times,serif" font-size="14.00" fill="#000000">OtherPhotosComponent</text>
</g>
<!-- OtherPhotosComponent&#45;&gt;AppModule -->
<g id="edge18" class="edge">
<title>OtherPhotosComponent&#45;&gt;AppModule</title>
<path fill="none" stroke="#000000" d="M2907.4166,-122.1061C2907.4166,-122.1061 2907.4166,-140.991 2907.4166,-140.991"/>
<polygon fill="#000000" stroke="#000000" points="2903.9166,-140.9909 2907.4166,-150.991 2910.9166,-140.991 2903.9166,-140.9909"/>
</g>
<!-- PasswordCheckingComponent -->
<g id="node19" class="node">
<title>PasswordCheckingComponent</title>
<polygon fill="#ffffb3" stroke="#000000" points="2758.1427,-122 2569.8573,-122 2569.8573,-86 2758.1427,-86 2758.1427,-122"/>
<text text-anchor="middle" x="2664" y="-99.8" font-family="Times,serif" font-size="14.00" fill="#000000">PasswordCheckingComponent</text>
</g>
<!-- PasswordCheckingComponent&#45;&gt;AppModule -->
<g id="edge19" class="edge">
<title>PasswordCheckingComponent&#45;&gt;AppModule</title>
<path fill="none" stroke="#000000" d="M2664,-122.0511C2664,-136.373 2664,-154 2664,-154 2664,-154 2877.3022,-154 2877.3022,-154"/>
<polygon fill="#000000" stroke="#000000" points="2877.3023,-157.5001 2887.3022,-154 2877.3022,-150.5001 2877.3023,-157.5001"/>
</g>
<!-- PeopleListComponent -->
<g id="node20" class="node">
<title>PeopleListComponent</title>
<polygon fill="#ffffb3" stroke="#000000" points="2551.7134,-122 2410.2866,-122 2410.2866,-86 2551.7134,-86 2551.7134,-122"/>
<text text-anchor="middle" x="2481" y="-99.8" font-family="Times,serif" font-size="14.00" fill="#000000">PeopleListComponent</text>
</g>
<!-- PeopleListComponent&#45;&gt;AppModule -->
<g id="edge20" class="edge">
<title>PeopleListComponent&#45;&gt;AppModule</title>
<path fill="none" stroke="#000000" d="M2481,-122.1871C2481,-137.1824 2481,-156 2481,-156 2481,-156 2877.2555,-156 2877.2555,-156"/>
<polygon fill="#000000" stroke="#000000" points="2877.2556,-159.5001 2887.2555,-156 2877.2555,-152.5001 2877.2556,-159.5001"/>
</g>
<!-- PhotoThambnailComponent -->
<g id="node21" class="node">
<title>PhotoThambnailComponent</title>
<polygon fill="#ffffb3" stroke="#000000" points="2392.1595,-122 2217.8405,-122 2217.8405,-86 2392.1595,-86 2392.1595,-122"/>
<text text-anchor="middle" x="2305" y="-99.8" font-family="Times,serif" font-size="14.00" fill="#000000">PhotoThambnailComponent</text>
</g>
<!-- PhotoThambnailComponent&#45;&gt;AppModule -->
<g id="edge21" class="edge">
<title>PhotoThambnailComponent&#45;&gt;AppModule</title>
<path fill="none" stroke="#000000" d="M2305,-122.2819C2305,-137.9478 2305,-158 2305,-158 2305,-158 2877.0887,-158 2877.0887,-158"/>
<polygon fill="#000000" stroke="#000000" points="2877.0887,-161.5001 2887.0887,-158 2877.0886,-154.5001 2877.0887,-161.5001"/>
</g>
<!-- PhotoViewerComponent -->
<g id="node22" class="node">
<title>PhotoViewerComponent</title>
<polygon fill="#ffffb3" stroke="#000000" points="2199.6993,-122 2044.3007,-122 2044.3007,-86 2199.6993,-86 2199.6993,-122"/>
<text text-anchor="middle" x="2122" y="-99.8" font-family="Times,serif" font-size="14.00" fill="#000000">PhotoViewerComponent</text>
</g>
<!-- PhotoViewerComponent&#45;&gt;AppModule -->
<g id="edge22" class="edge">
<title>PhotoViewerComponent&#45;&gt;AppModule</title>
<path fill="none" stroke="#000000" d="M2122,-122.027C2122,-138.3976 2122,-160 2122,-160 2122,-160 2877.3115,-160 2877.3115,-160"/>
<polygon fill="#000000" stroke="#000000" points="2877.3116,-163.5001 2887.3115,-160 2877.3115,-156.5001 2877.3116,-163.5001"/>
</g>
<!-- ProfileComponent -->
<g id="node23" class="node">
<title>ProfileComponent</title>
<polygon fill="#ffffb3" stroke="#000000" points="2026.9328,-122 1907.0672,-122 1907.0672,-86 2026.9328,-86 2026.9328,-122"/>
<text text-anchor="middle" x="1967" y="-99.8" font-family="Times,serif" font-size="14.00" fill="#000000">ProfileComponent</text>
</g>
<!-- ProfileComponent&#45;&gt;AppModule -->
<g id="edge23" class="edge">
<title>ProfileComponent&#45;&gt;AppModule</title>
<path fill="none" stroke="#000000" d="M1967,-122.0336C1967,-139.0597 1967,-162 1967,-162 1967,-162 2877.0455,-162 2877.0455,-162"/>
<polygon fill="#000000" stroke="#000000" points="2877.0455,-165.5001 2887.0455,-162 2877.0454,-158.5001 2877.0455,-165.5001"/>
</g>
<!-- ReDirectToLatestEventComponent -->
<g id="node24" class="node">
<title>ReDirectToLatestEventComponent</title>
<polygon fill="#ffffb3" stroke="#000000" points="1889.2794,-122 1674.7206,-122 1674.7206,-86 1889.2794,-86 1889.2794,-122"/>
<text text-anchor="middle" x="1782" y="-99.8" font-family="Times,serif" font-size="14.00" fill="#000000">ReDirectToLatestEventComponent</text>
</g>
<!-- ReDirectToLatestEventComponent&#45;&gt;AppModule -->
<g id="edge24" class="edge">
<title>ReDirectToLatestEventComponent&#45;&gt;AppModule</title>
<path fill="none" stroke="#000000" d="M1782,-122.002C1782,-139.6754 1782,-164 1782,-164 1782,-164 2877.1593,-164 2877.1593,-164"/>
<polygon fill="#000000" stroke="#000000" points="2877.1594,-167.5001 2887.1593,-164 2877.1593,-160.5001 2877.1594,-167.5001"/>
</g>
<!-- RegistrationComponent -->
<g id="node25" class="node">
<title>RegistrationComponent</title>
<polygon fill="#ffffb3" stroke="#000000" points="1656.766,-122 1507.234,-122 1507.234,-86 1656.766,-86 1656.766,-122"/>
<text text-anchor="middle" x="1582" y="-99.8" font-family="Times,serif" font-size="14.00" fill="#000000">RegistrationComponent</text>
</g>
<!-- RegistrationComponent&#45;&gt;AppModule -->
<g id="edge25" class="edge">
<title>RegistrationComponent&#45;&gt;AppModule</title>
<path fill="none" stroke="#000000" d="M1582,-122.2667C1582,-140.5552 1582,-166 1582,-166 1582,-166 2877.2099,-166 2877.2099,-166"/>
<polygon fill="#000000" stroke="#000000" points="2877.2099,-169.5001 2887.2099,-166 2877.2099,-162.5001 2877.2099,-169.5001"/>
</g>
<!-- SearchEventComponent -->
<g id="node26" class="node">
<title>SearchEventComponent</title>
<polygon fill="#ffffb3" stroke="#000000" points="1489.0772,-122 1336.9228,-122 1336.9228,-86 1489.0772,-86 1489.0772,-122"/>
<text text-anchor="middle" x="1413" y="-99.8" font-family="Times,serif" font-size="14.00" fill="#000000">SearchEventComponent</text>
</g>
<!-- SearchEventComponent&#45;&gt;AppModule -->
<g id="edge26" class="edge">
<title>SearchEventComponent&#45;&gt;AppModule</title>
<path fill="none" stroke="#000000" d="M1413,-122.1686C1413,-141.0898 1413,-168 1413,-168 1413,-168 2877.2687,-168 2877.2687,-168"/>
<polygon fill="#000000" stroke="#000000" points="2877.2687,-171.5001 2887.2687,-168 2877.2687,-164.5001 2877.2687,-171.5001"/>
</g>
<!-- SidebarComponent -->
<g id="node27" class="node">
<title>SidebarComponent</title>
<polygon fill="#ffffb3" stroke="#000000" points="1319.0954,-122 1194.9046,-122 1194.9046,-86 1319.0954,-86 1319.0954,-122"/>
<text text-anchor="middle" x="1257" y="-99.8" font-family="Times,serif" font-size="14.00" fill="#000000">SidebarComponent</text>
</g>
<!-- SidebarComponent&#45;&gt;AppModule -->
<g id="edge27" class="edge">
<title>SidebarComponent&#45;&gt;AppModule</title>
<path fill="none" stroke="#000000" d="M1257,-122.308C1257,-142.1455 1257,-171 1257,-171 1257,-171 2877.2523,-171 2877.2523,-171"/>
<polygon fill="#000000" stroke="#000000" points="2877.2523,-174.5001 2887.2523,-171 2877.2523,-167.5001 2877.2523,-174.5001"/>
</g>
<!-- SlideShowComponent -->
<g id="node28" class="node">
<title>SlideShowComponent</title>
<polygon fill="#ffffb3" stroke="#000000" points="1177,-122 1035,-122 1035,-86 1177,-86 1177,-122"/>
<text text-anchor="middle" x="1106" y="-99.8" font-family="Times,serif" font-size="14.00" fill="#000000">SlideShowComponent</text>
</g>
<!-- SlideShowComponent&#45;&gt;AppModule -->
<g id="edge28" class="edge">
<title>SlideShowComponent&#45;&gt;AppModule</title>
<path fill="none" stroke="#000000" d="M1106,-122.1289C1106,-142.5724 1106,-173 1106,-173 1106,-173 2877.0611,-173 2877.0611,-173"/>
<polygon fill="#000000" stroke="#000000" points="2877.0611,-176.5001 2887.0611,-173 2877.0611,-169.5001 2877.0611,-176.5001"/>
</g>
<!-- TimelineComponent -->
<g id="node29" class="node">
<title>TimelineComponent</title>
<polygon fill="#ffffb3" stroke="#000000" points="1016.8767,-122 885.1233,-122 885.1233,-86 1016.8767,-86 1016.8767,-122"/>
<text text-anchor="middle" x="951" y="-99.8" font-family="Times,serif" font-size="14.00" fill="#000000">TimelineComponent</text>
</g>
<!-- TimelineComponent&#45;&gt;AppModule -->
<g id="edge29" class="edge">
<title>TimelineComponent&#45;&gt;AppModule</title>
<path fill="none" stroke="#000000" d="M951,-122.2843C951,-143.3211 951,-175 951,-175 951,-175 2877.2303,-175 2877.2303,-175"/>
<polygon fill="#000000" stroke="#000000" points="2877.2303,-178.5001 2887.2303,-175 2877.2302,-171.5001 2877.2303,-178.5001"/>
</g>
<!-- WebviewDirective -->
<g id="node30" class="node">
<title>WebviewDirective</title>
<polygon fill="#ffffb3" stroke="#000000" points="866.7241,-122 745.2759,-122 745.2759,-86 866.7241,-86 866.7241,-122"/>
<text text-anchor="middle" x="806" y="-99.8" font-family="Times,serif" font-size="14.00" fill="#000000">WebviewDirective</text>
</g>
<!-- WebviewDirective&#45;&gt;AppModule -->
<g id="edge30" class="edge">
<title>WebviewDirective&#45;&gt;AppModule</title>
<path fill="none" stroke="#000000" d="M806,-122.0449C806,-143.6623 806,-177 806,-177 806,-177 2877.0695,-177 2877.0695,-177"/>
<polygon fill="#000000" stroke="#000000" points="2877.0695,-180.5001 2887.0695,-177 2877.0695,-173.5001 2877.0695,-180.5001"/>
</g>
<!-- AppComponent  -->
<g id="node34" class="node">
<title>AppComponent </title>
<polygon fill="#80b1d3" stroke="#000000" points="2983.439,-252 2874.561,-252 2874.561,-216 2983.439,-216 2983.439,-252"/>
<text text-anchor="middle" x="2929" y="-229.8" font-family="Times,serif" font-size="14.00" fill="#000000">AppComponent </text>
</g>
<!-- AppModule&#45;&gt;AppComponent  -->
<g id="edge33" class="edge">
<title>AppModule&#45;&gt;AppComponent </title>
<path fill="none" stroke="#000000" stroke-dasharray="1,5" d="M2929,-187.1061C2929,-187.1061 2929,-205.991 2929,-205.991"/>
<polygon fill="#000000" stroke="#000000" points="2925.5001,-205.9909 2929,-215.991 2932.5001,-205.991 2925.5001,-205.9909"/>
</g>
<!-- AngularMaterialModule -->
<g id="node32" class="node">
<title>AngularMaterialModule</title>
<polygon fill="#8dd3c7" stroke="#000000" points="721.3431,-122 718.3431,-126 697.3431,-126 694.3431,-122 568.6569,-122 568.6569,-86 721.3431,-86 721.3431,-122"/>
<text text-anchor="middle" x="645" y="-99.8" font-family="Times,serif" font-size="14.00" fill="#000000">AngularMaterialModule</text>
</g>
<!-- AngularMaterialModule&#45;&gt;AppModule -->
<g id="edge31" class="edge">
<title>AngularMaterialModule&#45;&gt;AppModule</title>
<path fill="none" stroke="#000000" d="M645,-122.1554C645,-144.3519 645,-179 645,-179 645,-179 2876.9129,-179 2876.9129,-179"/>
<polygon fill="#000000" stroke="#000000" points="2876.9129,-182.5001 2886.9129,-179 2876.9128,-175.5001 2876.9129,-182.5001"/>
</g>
<!-- AppRoutingModule -->
<g id="node33" class="node">
<title>AppRoutingModule</title>
<polygon fill="#8dd3c7" stroke="#000000" points="550.2744,-122 547.2744,-126 526.2744,-126 523.2744,-122 421.7256,-122 421.7256,-86 550.2744,-86 550.2744,-122"/>
<text text-anchor="middle" x="486" y="-99.8" font-family="Times,serif" font-size="14.00" fill="#000000">AppRoutingModule</text>
</g>
<!-- AppRoutingModule&#45;&gt;AppModule -->
<g id="edge32" class="edge">
<title>AppRoutingModule&#45;&gt;AppModule</title>
<path fill="none" stroke="#000000" d="M486,-122.2479C486,-145.0179 486,-181 486,-181 486,-181 2877.1112,-181 2877.1112,-181"/>
<polygon fill="#000000" stroke="#000000" points="2877.1112,-184.5001 2887.1112,-181 2877.1111,-177.5001 2877.1112,-184.5001"/>
</g>
<!-- ElectronService -->
<g id="node35" class="node">
<title>ElectronService</title>
<ellipse fill="#fdb462" stroke="#000000" cx="325" cy="-104" rx="72.9082" ry="18"/>
<text text-anchor="middle" x="325" y="-99.8" font-family="Times,serif" font-size="14.00" fill="#000000">ElectronService</text>
</g>
<!-- ElectronService&#45;&gt;AppModule -->
<g id="edge34" class="edge">
<title>ElectronService&#45;&gt;AppModule</title>
<path fill="none" stroke="#000000" d="M325,-122.3228C325,-145.6602 325,-183 325,-183 325,-183 2877.3075,-183 2877.3075,-183"/>
<polygon fill="#000000" stroke="#000000" points="2877.3076,-186.5001 2887.3075,-183 2877.3075,-179.5001 2877.3076,-186.5001"/>
</g>
<!-- FaceRecognitionService -->
<g id="node36" class="node">
<title>FaceRecognitionService</title>
<ellipse fill="#fdb462" stroke="#000000" cx="129" cy="-104" rx="105.3547" ry="18"/>
<text text-anchor="middle" x="129" y="-99.8" font-family="Times,serif" font-size="14.00" fill="#000000">FaceRecognitionService</text>
</g>
<!-- FaceRecognitionService&#45;&gt;AppModule -->
<g id="edge35" class="edge">
<title>FaceRecognitionService&#45;&gt;AppModule</title>
<path fill="none" stroke="#000000" d="M129,-122.3802C129,-146.2785 129,-185 129,-185 129,-185 2877.2459,-185 2877.2459,-185"/>
<polygon fill="#000000" stroke="#000000" points="2877.246,-188.5001 2887.2459,-185 2877.2459,-181.5001 2877.246,-188.5001"/>
</g>
</g>
</svg>
